<?xml version="1.0" encoding="UTF-8" standalone="no"?>
<!-- Created with Inkscape (http://www.inkscape.org/) -->

<svg
   xmlns:dc="http://purl.org/dc/elements/1.1/"
   xmlns:cc="http://creativecommons.org/ns#"
   xmlns:rdf="http://www.w3.org/1999/02/22-rdf-syntax-ns#"
   xmlns:svg="http://www.w3.org/2000/svg"
   xmlns="http://www.w3.org/2000/svg"
   xmlns:sodipodi="http://sodipodi.sourceforge.net/DTD/sodipodi-0.dtd"
   xmlns:inkscape="http://www.inkscape.org/namespaces/inkscape"
   width="210mm"
   height="297mm"
   viewBox="0 0 744.09448819 1052.3622047"
   id="svg2"
   version="1.1"
   inkscape:version="0.91 r13725"
   sodipodi:docname="icon-drawing.svg">
  <defs
     id="defs4" />
  <sodipodi:namedview
     id="base"
     pagecolor="#ffffff"
     bordercolor="#666666"
     borderopacity="1.0"
     inkscape:pageopacity="0.0"
     inkscape:pageshadow="2"
     inkscape:zoom="3.959798"
     inkscape:cx="-69.282378"
     inkscape:cy="832.79443"
     inkscape:document-units="px"
     inkscape:current-layer="layer1"
     showgrid="false"
     inkscape:window-width="1440"
     inkscape:window-height="775"
     inkscape:window-x="0"
     inkscape:window-y="1"
     inkscape:window-maximized="1" />
  <metadata
     id="metadata7">
    <rdf:RDF>
      <cc:Work
         rdf:about="">
        <dc:format>image/svg+xml</dc:format>
        <dc:type
           rdf:resource="http://purl.org/dc/dcmitype/StillImage" />
      </cc:Work>
    </rdf:RDF>
  </metadata>
  <g
     inkscape:label="Layer 1"
     inkscape:groupmode="layer"
     id="layer1">
    <path
       sodipodi:type="spiral"
       style="fill:none;fill-rule:evenodd;stroke:#000000;stroke-width:1px;stroke-linecap:butt;stroke-linejoin:miter;stroke-opacity:1"
       id="path4138"
       sodipodi:cx="312.64221"
       sodipodi:cy="113.93049"
       sodipodi:expansion="1"
       sodipodi:revolution="3"
       sodipodi:radius="44.997166"
       sodipodi:argument="-17.323673"
       sodipodi:t0="0"
       d="m 312.64221,113.93049 c 0.1013,2.25381 -2.98812,1.24849 -3.74598,0.16836 -2.05377,-2.9271 0.54849,-6.60605 3.40926,-7.66033 5.11727,-1.88584 10.30169,2.08376 11.57467,6.98689 1.86815,7.19554 -3.62373,14.0622 -10.56451,15.48901 -9.25097,1.90171 -17.84767,-5.16325 -19.40335,-14.14214 -1.95766,-11.29901 6.70203,-21.645515 17.71976,-23.317686 13.34394,-2.025222 25.45043,8.240307 27.23203,21.297386 2.09956,15.38731 -9.77824,29.25975 -24.87501,31.14637 -17.42981,2.17817 -33.07203,-11.31595 -35.06071,-28.45263 -2.25967,-19.471781 12.85351,-36.886372 32.03025,-38.975055 21.51341,-2.343186 40.70222,14.39096 42.8894,35.607875 2.42818,23.5548 -15.92833,44.51919 -39.1855,46.80374" />
    <path
       sodipodi:type="spiral"
       style="fill:none;fill-rule:evenodd;stroke:#000000;stroke-width:1px;stroke-linecap:butt;stroke-linejoin:miter;stroke-opacity:1"
       id="path4140"
       sodipodi:cx="311.63205"
       sodipodi:cy="113.93049"
       sodipodi:expansion="1"
       sodipodi:revolution="3"
       sodipodi:radius="43.594841"
       sodipodi:argument="-17.747589"
       sodipodi:t0="0"
       d="m 311.63205,113.93049 c 0.98763,1.94992 -2.1412,2.29332 -3.24091,1.6415 -2.98013,-1.76641 -2.14824,-6.05225 -0.0421,-8.12331 3.76741,-3.70465 9.92761,-2.26524 13.00571,1.55731 4.51725,5.60974 2.40394,13.86213 -3.15671,17.88812 -7.41148,5.366 -17.81853,2.55299 -22.77053,-4.75612 -6.23158,-9.19777 -2.70761,-21.78556 6.35553,-27.652932 10.97668,-7.106175 25.75862,-2.865504 32.53533,7.954932 7.98613,12.75151 3.02546,29.73544 -9.55433,37.41774 -14.52387,8.86952 -33.71478,3.18678 -42.30015,-11.15374 -9.75523,-16.29461 -3.34906,-37.695884 12.75315,-47.182552 18.06425,-10.642607 41.67827,-3.51204 52.06496,14.352552 11.53118,19.83308 3.67553,45.66162 -15.95196,56.94736"
       transform="matrix(1.1198307,0,0,1.1374623,-35.756188,-15.506638)" />
    <path
       sodipodi:type="spiral"
       style="fill:none;fill-rule:evenodd;stroke:#000000;stroke-width:1px;stroke-linecap:butt;stroke-linejoin:miter;stroke-opacity:1"
       id="path4142"
       sodipodi:cx="391.43411"
       sodipodi:cy="219.99651"
       sodipodi:expansion="2.2"
       sodipodi:revolution="2.7"
       sodipodi:radius="38.597874"
       sodipodi:argument="-17.383636"
       sodipodi:t0="0.14396377"
       d="m 391.04308,219.6199 c 0.0242,-0.72591 0.94731,-0.94332 1.51406,-0.78943 1.47315,0.40003 1.80076,2.2475 1.28864,3.48877 -1.02688,2.48896 -4.22504,2.94756 -6.41884,1.83787 -3.79139,-1.91779 -4.39774,-6.92468 -2.43147,-10.3618 3.08562,-5.39381 10.38193,-6.16283 15.3642,-3.06613 7.30699,4.54162 8.25276,14.62657 3.7397,21.4655 -6.29561,9.54014 -19.68439,10.6763 -28.70015,4.4507 -12.10136,-8.35627 -13.44134,-25.5782 -5.19808,-37.0988 10.73145,-14.99803 32.3286,-16.55511 46.68921,-5.98105 3.92778,2.89212 7.26208,6.56454 9.80221,10.72628"
       transform="matrix(0,1,1,0,154.92076,-178.15425)" />
    <path
       transform="matrix(0,0.68548395,0.69574795,0,222.25435,-55.821143)"
       d="m 391.04308,219.6199 c 0.0242,-0.72591 0.94731,-0.94332 1.51406,-0.78943 1.47315,0.40003 1.80076,2.2475 1.28864,3.48877 -1.02688,2.48896 -4.22504,2.94756 -6.41884,1.83787 -3.79139,-1.91779 -4.39774,-6.92468 -2.43147,-10.3618 3.08562,-5.39381 10.38193,-6.16283 15.3642,-3.06613 7.30699,4.54162 8.25276,14.62657 3.7397,21.4655 -6.29561,9.54014 -19.68439,10.6763 -28.70015,4.4507 -12.10136,-8.35627 -13.44134,-25.5782 -5.19808,-37.0988 10.73145,-14.99803 32.3286,-16.55511 46.68921,-5.98105 3.92778,2.89212 7.26208,6.56454 9.80221,10.72628"
       sodipodi:t0="0.14396377"
       sodipodi:argument="-17.383636"
       sodipodi:radius="38.597874"
       sodipodi:revolution="2.7"
       sodipodi:expansion="2.2"
       sodipodi:cy="219.99651"
       sodipodi:cx="391.43411"
       id="path4144"
       style="fill:none;fill-rule:evenodd;stroke:#000000;stroke-width:1px;stroke-linecap:butt;stroke-linejoin:miter;stroke-opacity:1"
       sodipodi:type="spiral" />
    <g
       id="g4167"
       transform="matrix(0.1,0,0,0.1,40.653246,189.49413)"
       inkscape:export-filename="/Users/maximmillen/icon.png"
       inkscape:export-xdpi="90"
       inkscape:export-ydpi="90">
      <rect
         ry="16.162399"
         y="64.433014"
         x="84.852814"
         height="160"
         width="160"
         id="rect4136"
         style="opacity:1;fill:#3145c5;fill-opacity:1;stroke:none;stroke-width:0.30000001;stroke-linecap:round;stroke-linejoin:round;stroke-miterlimit:4;stroke-dasharray:none;stroke-dashoffset:0;stroke-opacity:1" />
      <path
         sodipodi:nodetypes="cccccccccccccc"
         inkscape:connector-curvature="0"
         id="path4146"
         d="m 173.0713,81.541173 c -38.53875,0.703817 -70.78595,44.843567 -67.67339,89.911117 0.21748,18.19131 4.40041,38.13419 13.31949,52.98563 l 37.49316,0 c -16.87459,-15.75602 -30.03408,-39.36689 -28.26528,-65.65102 0.70248,-31.07836 24.22776,-61.258713 51.51603,-57.56917 22.67569,-2.775571 44.91664,22.4779 41.36633,49.76406 0.31852,21.32594 -18.81442,39.23775 -36.40388,33.90564 -14.02288,-2.17084 -23.04931,-21.85758 -16.78932,-36.76152 1.65451,-3.53546 7.40482,-7.23874 7.25878,-10.82948 -16.29219,5.01983 -19.32647,30.35529 -10.46826,44.96292 13.67666,24.42064 47.07608,19.63294 59.68696,-3.72977 9.48677,-14.36617 9.1726,-33.90026 6.44796,-50.90884 C 222.44136,99.398821 198.06679,80.502663 173.0713,81.541173 Z"
         style="opacity:1;fill:#ffffff;fill-opacity:1;stroke:none;stroke-width:0.30581552;stroke-linecap:round;stroke-linejoin:round;stroke-miterlimit:4;stroke-dasharray:none;stroke-dashoffset:0;stroke-opacity:1" />
    </g>
    <text
       xml:space="preserve"
       style="font-style:normal;font-variant:normal;font-weight:normal;font-stretch:normal;font-size:22.5px;line-height:125%;font-family:Helvetica;-inkscape-font-specification:'Helvetica, Normal';text-align:start;letter-spacing:0px;word-spacing:0px;writing-mode:lr-tb;text-anchor:start;fill:#000000;fill-opacity:1;stroke:none;stroke-width:1px;stroke-linecap:butt;stroke-linejoin:miter;stroke-opacity:1"
       x="128.21428"
       y="185.93362"
       id="text4171"
       sodipodi:linespacing="125%"><tspan
         sodipodi:role="line"
         id="tspan4173"
         x="128.21428"
         y="185.93362">Ceramics by Renate</tspan></text>
    <text
       sodipodi:linespacing="125%"
       id="text4175"
       y="218.07648"
       x="128.21428"
       style="font-style:normal;font-variant:normal;font-weight:normal;font-stretch:condensed;font-size:22.5px;line-height:125%;font-family:'Abadi MT Condensed Extra Bold';-inkscape-font-specification:'Abadi MT Condensed Extra Bold, Condensed';text-align:start;letter-spacing:0px;word-spacing:0px;writing-mode:lr;text-anchor:start;fill:#000000;fill-opacity:1;stroke:none;stroke-width:1px;stroke-linecap:butt;stroke-linejoin:miter;stroke-opacity:1;"
       xml:space="preserve"><tspan
         y="218.07648"
         x="128.21428"
         id="tspan4177"
         sodipodi:role="line">Ceramics by Renate</tspan></text>
    <text
       xml:space="preserve"
       style="font-style:normal;font-variant:normal;font-weight:normal;font-stretch:normal;font-size:22.5px;line-height:125%;font-family:'Adobe Caslon Pro';-inkscape-font-specification:'Adobe Caslon Pro, Normal';text-align:start;letter-spacing:0px;word-spacing:0px;writing-mode:lr;text-anchor:start;fill:#000000;fill-opacity:1;stroke:none;stroke-width:1px;stroke-linecap:butt;stroke-linejoin:miter;stroke-opacity:1;"
       x="129.28571"
       y="247.00505"
       id="text4179"
       sodipodi:linespacing="125%"><tspan
         sodipodi:role="line"
         id="tspan4181"
         x="129.28571"
         y="247.00505">Ceramics by Renate</tspan></text>
    <text
       sodipodi:linespacing="125%"
       id="text4183"
       y="288.79077"
       x="129.28571"
       style="font-style:normal;font-variant:normal;font-weight:300;font-stretch:normal;font-size:22.5px;line-height:125%;font-family:'Adobe Song Std';-inkscape-font-specification:'Adobe Song Std, Light';text-align:start;letter-spacing:0px;word-spacing:0px;writing-mode:lr;text-anchor:start;fill:#000000;fill-opacity:1;stroke:none;stroke-width:1px;stroke-linecap:butt;stroke-linejoin:miter;stroke-opacity:1;"
       xml:space="preserve"><tspan
         y="288.79077"
         x="129.28571"
         id="tspan4185"
         sodipodi:role="line">Ceramics by Renate</tspan></text>
    <text
       xml:space="preserve"
       style="font-style:normal;font-variant:normal;font-weight:normal;font-stretch:normal;font-size:22.5px;line-height:125%;font-family:'Arial Rounded MT Bold';-inkscape-font-specification:'Arial Rounded MT Bold, Normal';text-align:start;letter-spacing:0px;word-spacing:0px;writing-mode:lr;text-anchor:start;fill:#000000;fill-opacity:1;stroke:none;stroke-width:1px;stroke-linecap:butt;stroke-linejoin:miter;stroke-opacity:1;"
       x="129.28571"
       y="321.64792"
       id="text4187"
       sodipodi:linespacing="125%"><tspan
         sodipodi:role="line"
         id="tspan4189"
         x="129.28571"
         y="321.64792">Ceramics by Renate</tspan></text>
    <text
       sodipodi:linespacing="125%"
       id="text4191"
       y="353.07648"
       x="128.92856"
       style="font-style:normal;font-variant:normal;font-weight:normal;font-stretch:normal;font-size:22.5px;line-height:125%;font-family:'Estrangelo TurAbdin';-inkscape-font-specification:'Estrangelo TurAbdin, Normal';text-align:start;letter-spacing:0px;word-spacing:0px;writing-mode:lr;text-anchor:start;fill:#000000;fill-opacity:1;stroke:none;stroke-width:1px;stroke-linecap:butt;stroke-linejoin:miter;stroke-opacity:1;"
       xml:space="preserve"><tspan
         y="353.07648"
         x="128.92856"
         id="tspan4193"
         sodipodi:role="line">Ceramics by Renate</tspan></text>
    <g
       inkscape:export-ydpi="90"
       inkscape:export-xdpi="90"
       inkscape:export-filename="/Users/maximmillen/icon.png"
       transform="matrix(0.06540284,0,0,0.06540284,-61.946971,190.29475)"
       id="g4199">
      <rect
         style="opacity:1;fill:#3145c5;fill-opacity:1;stroke:none;stroke-width:0.30000001;stroke-linecap:round;stroke-linejoin:round;stroke-miterlimit:4;stroke-dasharray:none;stroke-dashoffset:0;stroke-opacity:1"
         id="rect4201"
         width="160"
         height="160"
         x="84.852814"
         y="64.433014"
         ry="16.162399" />
      <path
         style="opacity:1;fill:#ffffff;fill-opacity:1;stroke:none;stroke-width:0.30581552;stroke-linecap:round;stroke-linejoin:round;stroke-miterlimit:4;stroke-dasharray:none;stroke-dashoffset:0;stroke-opacity:1"
         d="m 173.0713,81.541173 c -38.53875,0.703817 -70.78595,44.843567 -67.67339,89.911117 0.21748,18.19131 4.40041,38.13419 13.31949,52.98563 l 37.49316,0 c -16.87459,-15.75602 -30.03408,-39.36689 -28.26528,-65.65102 0.70248,-31.07836 24.22776,-61.258713 51.51603,-57.56917 22.67569,-2.775571 44.91664,22.4779 41.36633,49.76406 0.31852,21.32594 -18.81442,39.23775 -36.40388,33.90564 -14.02288,-2.17084 -23.04931,-21.85758 -16.78932,-36.76152 1.65451,-3.53546 7.40482,-7.23874 7.25878,-10.82948 -16.29219,5.01983 -19.32647,30.35529 -10.46826,44.96292 13.67666,24.42064 47.07608,19.63294 59.68696,-3.72977 9.48677,-14.36617 9.1726,-33.90026 6.44796,-50.90884 C 222.44136,99.398821 198.06679,80.502663 173.0713,81.541173 Z"
         id="path4203"
         inkscape:connector-curvature="0"
         sodipodi:nodetypes="cccccccccccccc" />
    </g>
    <g
       id="g4250"
       inkscape:export-filename="/Users/maximmillen/pottery-logo.png"
       inkscape:export-xdpi="90"
       inkscape:export-ydpi="90">
      <path
         sodipodi:nodetypes="scssssssssssscscsccssccscs"
         d="m -148.67465,226.59612 c -0.005,0.42747 0,7.335 -0.0675,7.9875 -0.0225,0.27 -0.2925,0.54 -0.7425,0.54 l -1.53,0 c -0.135,0 -0.1575,0.0675 -0.1575,0.225 l 0,0.4275 c 0,0.135 0.0225,0.225 0.2025,0.225 0.315,0 1.26,-0.0675 3.42,-0.0675 2.205,0 2.925,0.0675 3.15,0.0675 0.2025,0 0.225,-0.0675 0.225,-0.18 l 0,-0.4725 c 0,-0.1575 -0.0225,-0.225 -0.225,-0.225 l -1.4175,0 c -0.54,0 -0.72,-0.3375 -0.765,-0.9 -0.0225,-0.3825 -0.0225,-6.6825 -0.0225,-6.9975 l 0.0355,-6.38736 0.62119,-0.10503 c 1.08707,-0.18381 9.12345,-1.32996 9.84528,-1.10972 l -0.69249,-1.39631 c -1.07957,0.22818 -7.93455,1.47854 -10.35272,1.88742 l -1.06489,0.18006 c -2.0854,0.35261 -6.97619,1.08831 -8.1595,1.24275 l -0.15055,1.53886 c 0.8202,-0.41252 6.6481,-1.6791 7.35803,-1.79914 l 0.55462,-0.0938 z"
         style="font-style:normal;font-variant:normal;font-weight:normal;font-stretch:normal;font-size:medium;line-height:125%;font-family:'Adobe Caslon Pro';-inkscape-font-specification:'Adobe Caslon Pro, Normal';text-align:start;letter-spacing:0px;word-spacing:0px;writing-mode:lr-tb;text-anchor:start;fill:#d6d6d6;fill-opacity:1;stroke:none;stroke-width:1px;stroke-linecap:butt;stroke-linejoin:miter;stroke-opacity:1"
         id="path4206"
         inkscape:connector-curvature="0" />
      <path
         d="m -133.95437,233.25612 0,-4.77 c 0,-0.6075 -0.0225,-1.125 -0.495,-1.5975 -0.315,-0.2925 -0.7425,-0.6075 -1.8,-0.6075 -1.0125,0 -1.8,0.225 -2.745,0.7875 -0.9225,0.54 -1.5525,1.395 -1.5525,2.115 0,0.5175 0.18,0.72 0.54,0.72 0.9225,0 1.1925,-0.495 1.1925,-1.2825 0,-0.405 -0.2025,-0.7425 0.1125,-1.035 0.315,-0.2925 1.0125,-0.4725 1.4625,-0.4725 0.6525,0 1.1025,0.2025 1.35,0.495 0.2475,0.2925 0.27,0.8775 0.315,1.26 l 0,1.44 c -0.36,0.315 -1.53,0.855 -2.5425,1.305 -1.7775,0.7875 -2.25,1.6875 -2.25,2.7225 0,1.4175 0.81,1.8675 1.35,1.8675 0.495,0 0.9,0 1.3275,-0.135 1.0125,-0.3375 1.755,-0.81 2.2275,-1.3725 l 0.045,0 c 0.2025,0.9225 0.7875,1.5075 1.5975,1.5075 1.1475,0 1.575,-0.765 1.755,-1.1025 0.135,-0.225 0.09,-0.3375 0.0225,-0.405 l -0.225,-0.18 c -0.09,-0.0675 -0.135,-0.0225 -0.225,0.09 -0.1125,0.1575 -0.4275,0.3375 -0.7875,0.3375 -0.405,0 -0.675,-0.405 -0.675,-1.6875 z m -1.6425,0.495 c 0,0.6075 -1.1925,1.395 -1.845,1.395 -0.675,0 -1.17,-0.405 -1.17,-1.2375 0,-1.8675 2.205,-2.3175 3.015,-2.925 l 0,2.7675 z"
         style="font-style:normal;font-variant:normal;font-weight:normal;font-stretch:normal;font-size:medium;line-height:125%;font-family:'Adobe Caslon Pro';-inkscape-font-specification:'Adobe Caslon Pro, Normal';text-align:start;letter-spacing:0px;word-spacing:0px;writing-mode:lr-tb;text-anchor:start;fill:#d6d6d6;fill-opacity:1;stroke:none;stroke-width:1px;stroke-linecap:butt;stroke-linejoin:miter;stroke-opacity:1"
         id="path4208"
         inkscape:connector-curvature="0" />
      <path
         d="m -129.59535,232.69362 c 0,0.675 0,1.3725 -0.0225,2.0475 -0.0225,0.36 -0.1125,0.45 -0.36,0.45 l -1.1025,0 c -0.1575,0 -0.225,0.045 -0.225,0.18 l 0,0.45 c 0,0.135 0.0675,0.18 0.18,0.18 0.2475,0 1.125,-0.0675 2.43,-0.0675 0.945,0 1.98,0.0675 2.16,0.0675 0.1575,0 0.2025,-0.0675 0.2025,-0.225 l 0,-0.3825 c 0,-0.135 -0.045,-0.2025 -0.225,-0.2025 l -1.035,0 c -0.2475,0 -0.315,-0.1575 -0.36,-0.585 -0.0225,-0.2475 -0.0225,-1.0575 -0.0225,-1.935 l 0,-2.4525 c 0,-1.8675 0,-3.285 0.045,-3.6675 0.0225,-0.1575 0,-0.27 -0.1125,-0.27 -0.135,0 -0.2475,0.045 -0.4275,0.135 -0.855,0.4725 -1.71,0.8325 -2.43,1.1025 -0.1125,0.045 -0.1575,0.09 -0.1575,0.1575 l 0,0.2025 c 0,0.09 0.045,0.135 0.2025,0.1575 1.125,0.18 1.26,0.585 1.26,1.35 l 0,3.3075 z m 0.225,-8.955 c 0.945,0 1.35,-0.72 1.35,-1.3275 0,-0.5175 -0.3825,-1.1925 -1.215,-1.1925 -0.9225,0 -1.4175,0.675 -1.4175,1.26 0,0.7425 0.765,1.26 1.2825,1.26 z"
         style="font-style:normal;font-variant:normal;font-weight:normal;font-stretch:normal;font-size:medium;line-height:125%;font-family:'Adobe Caslon Pro';-inkscape-font-specification:'Adobe Caslon Pro, Normal';text-align:start;letter-spacing:0px;word-spacing:0px;writing-mode:lr-tb;text-anchor:start;fill:#d6d6d6;fill-opacity:1;stroke:none;stroke-width:1px;stroke-linecap:butt;stroke-linejoin:miter;stroke-opacity:1"
         id="path4210"
         inkscape:connector-curvature="0" />
      <path
         d="m -99.808866,233.25612 0,-4.77 c 0,-0.6075 -0.0225,-1.125 -0.495004,-1.5975 -0.315,-0.2925 -0.7425,-0.6075 -1.8,-0.6075 -1.0125,0 -1.8,0.225 -2.745,0.7875 -0.9225,0.54 -1.5525,1.395 -1.5525,2.115 0,0.5175 0.18,0.72 0.54,0.72 0.9225,0 1.1925,-0.495 1.1925,-1.2825 0,-0.405 -0.2025,-0.7425 0.1125,-1.035 0.315,-0.2925 1.0125,-0.4725 1.4625,-0.4725 0.6525,0 1.1025,0.2025 1.35,0.495 0.2475,0.2925 0.27,0.8775 0.315,1.26 l 0,1.44 c -0.36,0.315 -1.53,0.855 -2.5425,1.305 -1.7775,0.7875 -2.25,1.6875 -2.25,2.7225 0,1.4175 0.81,1.8675 1.35,1.8675 0.495,0 0.9,0 1.3275,-0.135 1.0125,-0.3375 1.755,-0.81 2.2275,-1.3725 l 0.045,0 c 0.2025,0.9225 0.7875,1.5075 1.597504,1.5075 1.1475,0 1.575,-0.765 1.755,-1.1025 0.135,-0.225 0.09,-0.3375 0.0225,-0.405 l -0.225,-0.18 c -0.09,-0.0675 -0.135,-0.0225 -0.225,0.09 -0.1125,0.1575 -0.4275,0.3375 -0.7875,0.3375 -0.405,0 -0.675,-0.405 -0.675,-1.6875 z m -1.642504,0.495 c 0,0.6075 -1.1925,1.395 -1.845,1.395 -0.675,0 -1.17,-0.405 -1.17,-1.2375 0,-1.8675 2.205,-2.3175 3.015,-2.925 l 0,2.7675 z"
         style="font-style:normal;font-variant:normal;font-weight:normal;font-stretch:normal;font-size:medium;line-height:125%;font-family:'Adobe Caslon Pro';-inkscape-font-specification:'Adobe Caslon Pro, Normal';text-align:start;letter-spacing:0px;word-spacing:0px;writing-mode:lr-tb;text-anchor:start;fill:#d6d6d6;fill-opacity:1;stroke:none;stroke-width:1px;stroke-linecap:butt;stroke-linejoin:miter;stroke-opacity:1"
         id="path4214"
         inkscape:connector-curvature="0" />
      <path
         d="m -87.664843,228.91362 c 0,-0.5625 -0.5625,-1.6875 -1.2375,-2.1375 -0.54,-0.36 -1.2375,-0.495 -1.9125,-0.495 -1.125,0 -2.43,0.8325 -3.0825,1.6425 l -0.045,0 -0.1575,-1.3725 c -0.0225,-0.18 -0.0675,-0.27 -0.18,-0.27 -0.09,0 -0.225,0.0675 -0.405,0.1575 l -1.935,1.08 c -0.1125,0.045 -0.2025,0.1125 -0.2025,0.225 l 0,0.1125 c 0,0.0675 0.0225,0.135 0.18,0.2025 l 0.18,0.09 c 0.5625,0.27 0.9225,0.6525 0.9225,1.3275 l 0,5.265 c 0,0.3825 -0.1575,0.45 -0.45,0.45 l -0.6525,0 c -0.18,0 -0.225,0.0675 -0.225,0.2025 l 0,0.405 c 0,0.135 0.045,0.2025 0.1575,0.2025 0.135,0 0.855,-0.0675 2.0025,-0.0675 1.1925,0 1.8,0.0675 1.9575,0.0675 0.1125,0 0.1575,-0.0675 0.1575,-0.2025 l 0,-0.3825 c 0,-0.1575 -0.045,-0.225 -0.225,-0.225 l -0.5625,0 c -0.4725,0 -0.54,-0.135 -0.54,-0.7425 l 0,-4.6575 c 0,-0.4275 0.0675,-1.035 0.5175,-1.53 0.675,-0.72 1.4625,-0.8775 1.8225,-0.8775 0.5625,0 1.1025,0 1.6425,0.405 0.6525,0.4725 0.6525,1.125 0.6525,2.025 l 0,2.97 c 0,0.585 -0.0225,1.305 -0.045,1.89 -0.0225,0.405 -0.2025,0.5175 -0.45,0.5175 l -0.6525,0 c -0.225,0 -0.2925,0.045 -0.2925,0.2025 l 0,0.36 c 0,0.18 0.045,0.2475 0.18,0.2475 0.1575,0 0.8775,-0.0675 2.025,-0.0675 1.2825,0 1.98,0.0675 2.1375,0.0675 0.135,0 0.18,-0.09 0.18,-0.2475 l 0,-0.36 c 0,-0.135 -0.045,-0.2025 -0.2475,-0.2025 l -0.72,0 c -0.2925,0 -0.495,-0.1125 -0.495,-0.4725 l 0,-5.805 z"
         style="font-style:normal;font-variant:normal;font-weight:normal;font-stretch:normal;font-size:medium;line-height:125%;font-family:'Adobe Caslon Pro';-inkscape-font-specification:'Adobe Caslon Pro, Normal';text-align:start;letter-spacing:0px;word-spacing:0px;writing-mode:lr-tb;text-anchor:start;fill:#d6d6d6;fill-opacity:1;stroke:none;stroke-width:1px;stroke-linecap:butt;stroke-linejoin:miter;stroke-opacity:1"
         id="path4216"
         inkscape:connector-curvature="0" />
      <path
         d="m -77.602772,229.94862 c 0.36,0 0.63,-0.045 0.63,-0.36 0,-0.8775 -0.72,-3.3075 -3.3075,-3.3075 -1.125,0 -2.25,0.2025 -3.2175,1.1925 -1.1925,1.1925 -1.4175,2.7 -1.4175,3.5775 0,1.575 0.2025,2.4075 0.99,3.555 0.8325,1.215 2.25,1.5975 3.5325,1.5975 2.0025,0 3.1725,-1.5525 3.5775,-2.4525 0.1125,-0.2475 0.0675,-0.315 0,-0.3375 l -0.2925,-0.1575 c -0.0675,-0.0225 -0.1575,0.0225 -0.2025,0.1125 -0.3825,0.7425 -1.35,1.53 -2.7225,1.53 -1.8,0 -3.195,-1.665 -3.195,-3.87 0,-0.5175 0.0225,-0.8775 0.0675,-1.08 l 5.5575,0 z m -5.4675,-0.675 c 0.4275,-1.665 1.3725,-2.3175 2.3625,-2.3175 1.4625,0 1.7325,1.485 1.7325,2.0025 0,0.2025 -0.18,0.315 -0.6075,0.315 l -3.4875,0 z"
         style="font-style:normal;font-variant:normal;font-weight:normal;font-stretch:normal;font-size:medium;line-height:125%;font-family:'Adobe Caslon Pro';-inkscape-font-specification:'Adobe Caslon Pro, Normal';text-align:start;letter-spacing:0px;word-spacing:0px;writing-mode:lr-tb;text-anchor:start;fill:#d6d6d6;fill-opacity:1;stroke:none;stroke-width:1px;stroke-linecap:butt;stroke-linejoin:miter;stroke-opacity:1"
         id="path4218"
         inkscape:connector-curvature="0" />
      <path
         d="m -65.392303,228.80112 c 0.72,0.09 1.62,0.1125 2.4525,0.1125 3.5775,0 5.715,-1.755 5.715,-4.59 0,-1.2825 -0.6525,-2.5425 -1.71,-3.2625 -1.2825,-0.8775 -2.475,-1.125 -5.0175,-1.125 -0.7425,0 -2.07,0.0675 -2.475,0.0675 -2.1375,0 -2.9475,-0.0675 -3.195,-0.0675 -0.1125,0 -0.135,0.045 -0.135,0.1575 l 0,0.54 c 0,0.135 0.0225,0.18 0.135,0.18 l 1.2825,0 c 0.6075,0 0.8325,0.045 0.8775,0.495 0.0225,0.225 0.045,2.6775 0.045,4.1625 l 0,2.5875 c 0,2.61 -0.0675,6.12 -0.09,6.345 -0.0675,0.6075 -0.225,0.72 -0.99,0.72 l -0.9675,0 c -0.1125,0 -0.135,0.045 -0.135,0.1575 l 0,0.5625 c 0,0.09 0.0225,0.1575 0.18,0.1575 0.2475,0 1.125,-0.0675 3.105,-0.0675 2.115,0 2.8125,0.0675 3.1275,0.0675 0.18,0 0.2025,-0.0675 0.2025,-0.18 l 0,-0.54 c 0,-0.09 -0.0225,-0.1575 -0.18,-0.1575 l -1.44,0 c -0.4725,0 -0.6975,-0.225 -0.7425,-0.72 -0.0225,-0.315 -0.045,-3.375 -0.045,-4.4325 l 0,-1.17 z m 0,-7.9875 c 0.45,-0.1575 1.3725,-0.1575 1.755,-0.1575 1.3275,0 4.0725,0.7875 4.0725,3.735 0,0.7875 -0.09,1.62 -0.585,2.2725 -0.585,0.7875 -1.8,1.53 -3.1725,1.53 -0.8775,0 -1.62,-0.0675 -2.07,-0.2025 l 0,-7.1775 z"
         style="font-style:normal;font-variant:normal;font-weight:normal;font-stretch:normal;font-size:medium;line-height:125%;font-family:'Adobe Caslon Pro';-inkscape-font-specification:'Adobe Caslon Pro, Normal';text-align:start;letter-spacing:0px;word-spacing:0px;writing-mode:lr-tb;text-anchor:start;fill:#d6d6d6;fill-opacity:1;stroke:none;stroke-width:1px;stroke-linecap:butt;stroke-linejoin:miter;stroke-opacity:1"
         id="path4220"
         inkscape:connector-curvature="0" />
      <path
         d="m -52.441444,236.20362 c 2.7675,0 4.9725,-2.4975 4.9725,-4.95 0,-1.4625 -0.5175,-2.6325 -1.53,-3.6675 -0.675,-0.675 -1.9125,-1.305 -3.15,-1.305 -0.7425,0 -1.845,0.18 -3.015,1.08 -1.3275,1.035 -1.935,2.475 -1.935,3.6225 0,1.5975 0.2025,2.43 1.2375,3.6675 0.945,1.125 2.34,1.5525 3.42,1.5525 z m 0.27,-0.675 c -1.0575,0 -1.71,-0.4275 -2.2275,-1.17 -0.72,-1.035 -0.855,-1.89 -0.855,-3.15 0,-1.71 0.315,-2.6325 1.1925,-3.5325 0.54,-0.585 1.125,-0.72 1.7325,-0.72 1.1475,0 2.97,1.575 2.97,4.0725 0,2.4075 -1.1025,4.5 -2.8125,4.5 z"
         style="font-style:normal;font-variant:normal;font-weight:normal;font-stretch:normal;font-size:medium;line-height:125%;font-family:'Adobe Caslon Pro';-inkscape-font-specification:'Adobe Caslon Pro, Normal';text-align:start;letter-spacing:0px;word-spacing:0px;writing-mode:lr-tb;text-anchor:start;fill:#d6d6d6;fill-opacity:1;stroke:none;stroke-width:1px;stroke-linecap:butt;stroke-linejoin:miter;stroke-opacity:1"
         id="path4222"
         inkscape:connector-curvature="0" />
      <path
         d="m -42.877889,230.87112 c 0,-1.035 0.0225,-2.1375 0.0675,-3.1725 l 2.9025,0 c 0.135,0 0.18,-0.0675 0.2025,-0.18 l 0.225,-0.7875 c 0.045,-0.09 -0.0225,-0.2025 -0.1575,-0.2025 l -3.1275,0 0.1125,-2.205 c 0,-0.18 -0.045,-0.3375 -0.225,-0.3375 -0.135,0 -0.2475,0.045 -0.315,0.225 -0.2925,0.765 -2.025,2.4975 -2.565,2.8125 -0.27,0.1575 -0.405,0.225 -0.405,0.405 0,0.18 0.135,0.27 0.3375,0.27 l 1.3725,0 c -0.0225,0.945 -0.045,2.475 -0.045,2.88 l 0,0.495 c 0,0.315 -0.0675,2.295 -0.0675,3.2175 0,0.855 1.08,1.9125 2.1825,1.9125 1.35,0 2.2725,-0.675 2.4975,-0.9 0.0675,-0.0675 0.1125,-0.1575 0.045,-0.2475 l -0.1125,-0.2025 c -0.0675,-0.09 -0.1575,-0.1125 -0.27,-0.045 -0.315,0.2025 -0.9675,0.2925 -1.485,0.2925 -0.405,0 -1.17,-0.2925 -1.17,-1.98 l 0,-2.25 z"
         style="font-style:normal;font-variant:normal;font-weight:normal;font-stretch:normal;font-size:medium;line-height:125%;font-family:'Adobe Caslon Pro';-inkscape-font-specification:'Adobe Caslon Pro, Normal';text-align:start;letter-spacing:0px;word-spacing:0px;writing-mode:lr-tb;text-anchor:start;fill:#d6d6d6;fill-opacity:1;stroke:none;stroke-width:1px;stroke-linecap:butt;stroke-linejoin:miter;stroke-opacity:1"
         id="path4224"
         inkscape:connector-curvature="0" />
      <path
         d="m -35.714803,230.87112 c 0,-1.035 0.0225,-2.1375 0.0675,-3.1725 l 2.9025,0 c 0.135,0 0.18,-0.0675 0.2025,-0.18 l 0.225,-0.7875 c 0.045,-0.09 -0.0225,-0.2025 -0.1575,-0.2025 l -3.1275,0 0.1125,-2.205 c 0,-0.18 -0.045,-0.3375 -0.225,-0.3375 -0.135,0 -0.2475,0.045 -0.315,0.225 -0.2925,0.765 -2.025,2.4975 -2.565,2.8125 -0.27,0.1575 -0.405,0.225 -0.405,0.405 0,0.18 0.135,0.27 0.3375,0.27 l 1.3725,0 c -0.0225,0.945 -0.045,2.475 -0.045,2.88 l 0,0.495 c 0,0.315 -0.0675,2.295 -0.0675,3.2175 0,0.855 1.08,1.9125 2.1825,1.9125 1.35,0 2.2725,-0.675 2.4975,-0.9 0.0675,-0.0675 0.1125,-0.1575 0.045,-0.2475 l -0.1125,-0.2025 c -0.0675,-0.09 -0.1575,-0.1125 -0.27,-0.045 -0.315,0.2025 -0.9675,0.2925 -1.485,0.2925 -0.405,0 -1.17,-0.2925 -1.17,-1.98 l 0,-2.25 z"
         style="font-style:normal;font-variant:normal;font-weight:normal;font-stretch:normal;font-size:medium;line-height:125%;font-family:'Adobe Caslon Pro';-inkscape-font-specification:'Adobe Caslon Pro, Normal';text-align:start;letter-spacing:0px;word-spacing:0px;writing-mode:lr-tb;text-anchor:start;fill:#d6d6d6;fill-opacity:1;stroke:none;stroke-width:1px;stroke-linecap:butt;stroke-linejoin:miter;stroke-opacity:1"
         id="path4226"
         inkscape:connector-curvature="0" />
      <path
         d="m -24.209218,229.94862 c 0.36,0 0.63,-0.045 0.63,-0.36 0,-0.8775 -0.72,-3.3075 -3.3075,-3.3075 -1.125,0 -2.25,0.2025 -3.2175,1.1925 -1.1925,1.1925 -1.4175,2.7 -1.4175,3.5775 0,1.575 0.2025,2.4075 0.99,3.555 0.8325,1.215 2.25,1.5975 3.5325,1.5975 2.0025,0 3.1725,-1.5525 3.5775,-2.4525 0.1125,-0.2475 0.0675,-0.315 0,-0.3375 l -0.2925,-0.1575 c -0.0675,-0.0225 -0.1575,0.0225 -0.2025,0.1125 -0.3825,0.7425 -1.35,1.53 -2.7225,1.53 -1.8,0 -3.195,-1.665 -3.195,-3.87 0,-0.5175 0.0225,-0.8775 0.0675,-1.08 l 5.5575,0 z m -5.4675,-0.675 c 0.4275,-1.665 1.3725,-2.3175 2.3625,-2.3175 1.4625,0 1.7325,1.485 1.7325,2.0025 0,0.2025 -0.18,0.315 -0.6075,0.315 l -3.4875,0 z"
         style="font-style:normal;font-variant:normal;font-weight:normal;font-stretch:normal;font-size:medium;line-height:125%;font-family:'Adobe Caslon Pro';-inkscape-font-specification:'Adobe Caslon Pro, Normal';text-align:start;letter-spacing:0px;word-spacing:0px;writing-mode:lr-tb;text-anchor:start;fill:#d6d6d6;fill-opacity:1;stroke:none;stroke-width:1px;stroke-linecap:butt;stroke-linejoin:miter;stroke-opacity:1"
         id="path4228"
         inkscape:connector-curvature="0" />
      <path
         d="m -20.591639,232.06362 c 0,1.17 0,1.9575 -0.0225,2.7 0,0.2925 -0.1575,0.4275 -0.495,0.4275 l -0.8775,0 c -0.2025,0 -0.2475,0.045 -0.2475,0.2025 l 0,0.3825 c 0,0.18 0.045,0.225 0.135,0.225 0.135,0 1.08,-0.0675 2.475,-0.0675 1.215,0 2.25,0.0675 2.385,0.0675 0.09,0 0.1125,-0.0675 0.1125,-0.2025 l 0,-0.405 c 0,-0.135 -0.0225,-0.2025 -0.1575,-0.2025 l -1.0575,0 c -0.4725,0 -0.63,-0.225 -0.63,-0.9225 l 0,-4.68 c 0,-0.0675 0.09,-0.4725 0.225,-0.72 0.3825,-0.72 0.9675,-0.945 1.3275,-0.945 0.2925,0 0.5625,0.0675 0.7425,0.18 0.18,0.09 0.405,0.18 0.6525,0.18 0.405,0 0.945,-0.45 0.945,-1.1025 0,-0.5175 -0.3825,-0.99 -1.1475,-0.99 -0.9675,0 -2.025,0.9225 -2.7,1.9575 l -0.09,0 -0.1125,-1.5975 c 0,-0.135 -0.0225,-0.27 -0.1575,-0.27 -0.09,0 -0.18,0.0225 -0.315,0.09 l -2.2275,1.1475 c -0.135,0.0675 -0.18,0.1125 -0.18,0.2025 l 0,0.135 c 0,0.09 0.045,0.1125 0.18,0.1575 l 0.4275,0.225 c 0.63,0.3375 0.81,0.5625 0.81,1.71 l 0,2.115 z"
         style="font-style:normal;font-variant:normal;font-weight:normal;font-stretch:normal;font-size:medium;line-height:125%;font-family:'Adobe Caslon Pro';-inkscape-font-specification:'Adobe Caslon Pro, Normal';text-align:start;letter-spacing:0px;word-spacing:0px;writing-mode:lr-tb;text-anchor:start;fill:#d6d6d6;fill-opacity:1;stroke:none;stroke-width:1px;stroke-linecap:butt;stroke-linejoin:miter;stroke-opacity:1"
         id="path4230"
         inkscape:connector-curvature="0" />
      <path
         sodipodi:nodetypes="scccsssssssssssscccsssssssssssccccsss"
         d="m -155.03269,242.05362 c 1.1925,0 143.597496,-0.8775 143.912496,-1.4625 0.405,-0.7425 1.2824999,-2.835 2.3849999,-5.3325 1.5525,-3.5325 3.0375,-6.975 3.5325,-7.5825 0.225,-0.2925 0.54,-0.405 0.7875,-0.405 l 0.36,0 c 0.1125,0 0.1125,-0.0675 0.1125,-0.2025 l 0,-0.4275 c 0,-0.09 0,-0.18 -0.135,-0.18 -0.2475,0 -0.765,0.0675 -1.3725,0.0675 -1.08,0 -1.5525,-0.0675 -1.845,-0.0675 -0.1125,0 -0.135,0.0675 -0.135,0.18 l 0,0.45 c 0,0.1125 0.0225,0.18 0.1575,0.18 l 0.36,0 c 0.3375,0 0.5175,0.2925 0.3825,0.855 -0.135,0.5625 -2.0925,5.2425 -2.3175,5.6025 l -0.09,0 c -0.2475,-0.495 -1.7774999,-5.4675 -1.8449999,-5.9625 -0.045,-0.3375 0.045,-0.495 0.2925,-0.495 l 0.4275,0 c 0.1124999,0 0.1349999,-0.0675 0.1349999,-0.18 l 0,-0.4725 c 0,-0.09 -0.0225,-0.1575 -0.2024999,-0.1575 -0.2475,0 -0.945,0.0675 -2.0925,0.0675 -1.3275,0 -1.8675,-0.0675 -2.07,-0.0675 -0.1575,0 -0.18,0.0675 -0.18,0.1575 l 0,0.45 c 0,0.135 0.0225,0.2025 0.18,0.2025 l 0.585,0 c 0.585,0 0.7875,0.3825 1.0575,0.945 0.18,0.4725 2.565,7.515 2.6774999,8.0775 -0.3149999,0.8775 -1.4624999,3.4425 -1.7999999,3.8475 -0.135,0.135 -0.315,0.1575 -0.4725,0.135 -0.2025,-0.045 -142.607496,-0.2475 -143.034996,-0.2475 -0.54,0 -1.035,0.405 -1.035,0.8775 0,0.675 0.4275,1.1475 1.2825,1.1475 z"
         style="font-style:normal;font-variant:normal;font-weight:normal;font-stretch:normal;font-size:medium;line-height:125%;font-family:'Adobe Caslon Pro';-inkscape-font-specification:'Adobe Caslon Pro, Normal';text-align:start;letter-spacing:0px;word-spacing:0px;writing-mode:lr-tb;text-anchor:start;fill:#d6d6d6;fill-opacity:1;stroke:none;stroke-width:1px;stroke-linecap:butt;stroke-linejoin:miter;stroke-opacity:1"
         id="path4232"
         inkscape:connector-curvature="0" />
      <path
         inkscape:connector-curvature="0"
         id="path4248"
         style="font-style:normal;font-variant:normal;font-weight:normal;font-stretch:normal;font-size:medium;line-height:125%;font-family:'Adobe Caslon Pro';-inkscape-font-specification:'Adobe Caslon Pro, Normal';text-align:start;letter-spacing:0px;word-spacing:0px;writing-mode:lr-tb;text-anchor:start;fill:#d6d6d6;fill-opacity:1;stroke:none;stroke-width:1px;stroke-linecap:butt;stroke-linejoin:miter;stroke-opacity:1"
         d="m -114.67465,226.59612 c -0.005,0.42747 0,7.335 -0.0675,7.9875 -0.0225,0.27 -0.2925,0.54 -0.7425,0.54 l -1.53,0 c -0.135,0 -0.1575,0.0675 -0.1575,0.225 l 0,0.4275 c 0,0.135 0.0225,0.225 0.2025,0.225 0.315,0 1.26,-0.0675 3.42,-0.0675 2.205,0 2.925,0.0675 3.15,0.0675 0.2025,0 0.225,-0.0675 0.225,-0.18 l 0,-0.4725 c 0,-0.1575 -0.0225,-0.225 -0.225,-0.225 l -1.4175,0 c -0.54,0 -0.72,-0.3375 -0.765,-0.9 -0.0225,-0.3825 -0.0225,-6.6825 -0.0225,-6.9975 l 0.0355,-6.38736 0.62119,-0.10503 c 1.08707,-0.18381 9.12345,-1.32996 9.84528,-1.10972 l -0.69249,-1.39631 c -1.07957,0.22818 -7.93455,1.47854 -10.35272,1.88742 l -1.06489,0.18006 c -2.0854,0.35261 -6.97619,1.08831 -8.1595,1.24275 l -0.15055,1.53886 c 0.8202,-0.41252 6.6481,-1.6791 7.35803,-1.79914 l 0.55462,-0.0938 z"
         sodipodi:nodetypes="scssssssssssscscsccssccscs" />
    </g>
    <rect
       style="opacity:1;fill:#5eacda;fill-opacity:1;stroke:none;stroke-width:0.30000001;stroke-linecap:round;stroke-linejoin:round;stroke-miterlimit:4;stroke-dasharray:none;stroke-dashoffset:0;stroke-opacity:1"
       id="rect4266"
       width="41.416256"
       height="28.53681"
       x="-152.78557"
       y="166.45842"
       ry="14.268405" />
  </g>
</svg>
